<mxfile host="app.diagrams.net" modified="2020-08-08T04:22:28.112Z" agent="5.0 (Macintosh; Intel Mac OS X 10_12_6) AppleWebKit/537.36 (KHTML, like Gecko) Chrome/84.0.4147.89 Safari/537.36" etag="Va0DBQ0HG22u4W3akRsq" version="13.6.0" type="github">
  <diagram id="s6OwTP6jVbqwrNtyVciZ" name="Page-1">
    <mxGraphModel dx="786" dy="498" grid="1" gridSize="10" guides="1" tooltips="1" connect="1" arrows="1" fold="1" page="1" pageScale="1" pageWidth="827" pageHeight="1169" math="0" shadow="0">
      <root>
        <mxCell id="0" />
        <mxCell id="1" parent="0" />
        <mxCell id="7ZY8rFN3QnacMBIgFG0h-1" value="Investors" style="shape=umlActor;verticalLabelPosition=bottom;verticalAlign=top;html=1;outlineConnect=0;" parent="1" vertex="1">
          <mxGeometry x="384" y="390" width="30" height="60" as="geometry" />
        </mxCell>
        <mxCell id="7ZY8rFN3QnacMBIgFG0h-2" value="" style="endArrow=classic;html=1;" parent="1" edge="1">
          <mxGeometry width="50" height="50" relative="1" as="geometry">
            <mxPoint x="340" y="430" as="sourcePoint" />
            <mxPoint x="250" y="430" as="targetPoint" />
          </mxGeometry>
        </mxCell>
        <mxCell id="7ZY8rFN3QnacMBIgFG0h-3" value="" style="endArrow=classic;html=1;" parent="1" edge="1">
          <mxGeometry width="50" height="50" relative="1" as="geometry">
            <mxPoint x="460" y="430" as="sourcePoint" />
            <mxPoint x="550" y="430" as="targetPoint" />
          </mxGeometry>
        </mxCell>
        <mxCell id="7ZY8rFN3QnacMBIgFG0h-5" value="" style="endArrow=classic;html=1;" parent="1" edge="1">
          <mxGeometry width="50" height="50" relative="1" as="geometry">
            <mxPoint x="250" y="430" as="sourcePoint" />
            <mxPoint x="250" y="360" as="targetPoint" />
          </mxGeometry>
        </mxCell>
        <mxCell id="7ZY8rFN3QnacMBIgFG0h-6" value="" style="endArrow=classic;html=1;" parent="1" edge="1">
          <mxGeometry width="50" height="50" relative="1" as="geometry">
            <mxPoint x="550" y="430" as="sourcePoint" />
            <mxPoint x="550" y="360" as="targetPoint" />
          </mxGeometry>
        </mxCell>
        <mxCell id="7ZY8rFN3QnacMBIgFG0h-8" value="Fiat/ Crypto" style="shape=parallelogram;perimeter=parallelogramPerimeter;whiteSpace=wrap;html=1;fixedSize=1;" parent="1" vertex="1">
          <mxGeometry x="170" y="280" width="120" height="60" as="geometry" />
        </mxCell>
        <mxCell id="7ZY8rFN3QnacMBIgFG0h-9" value="Smart Contract" style="rounded=1;whiteSpace=wrap;html=1;" parent="1" vertex="1">
          <mxGeometry x="339" y="160" width="120" height="60" as="geometry" />
        </mxCell>
        <mxCell id="7ZY8rFN3QnacMBIgFG0h-10" value="Mutual Fund Pool" style="ellipse;whiteSpace=wrap;html=1;" parent="1" vertex="1">
          <mxGeometry x="194" y="40" width="410" height="80" as="geometry" />
        </mxCell>
        <mxCell id="7ZY8rFN3QnacMBIgFG0h-11" value="" style="endArrow=classic;html=1;" parent="1" edge="1">
          <mxGeometry width="50" height="50" relative="1" as="geometry">
            <mxPoint x="260" y="260" as="sourcePoint" />
            <mxPoint x="320" y="220" as="targetPoint" />
          </mxGeometry>
        </mxCell>
        <mxCell id="7ZY8rFN3QnacMBIgFG0h-13" value="Votes for &lt;br&gt;selection&lt;br&gt;&amp;nbsp;of crypto" style="shape=parallelogram;perimeter=parallelogramPerimeter;whiteSpace=wrap;html=1;fixedSize=1;" parent="1" vertex="1">
          <mxGeometry x="500" y="280" width="120" height="60" as="geometry" />
        </mxCell>
        <mxCell id="7ZY8rFN3QnacMBIgFG0h-14" value="" style="shape=image;html=1;verticalAlign=top;verticalLabelPosition=bottom;labelBackgroundColor=#ffffff;imageAspect=0;aspect=fixed;image=https://cdn0.iconfinder.com/data/icons/business-management-1-8/256/b-38-128.png" parent="1" vertex="1">
          <mxGeometry x="350" y="300" width="40" height="40" as="geometry" />
        </mxCell>
        <mxCell id="7ZY8rFN3QnacMBIgFG0h-15" value="Token issued per investment" style="text;html=1;align=center;verticalAlign=middle;resizable=0;points=[];autosize=1;" parent="1" vertex="1">
          <mxGeometry x="285" y="340" width="170" height="20" as="geometry" />
        </mxCell>
        <mxCell id="3R21w9cmI3Dpv5J9La13-1" value="" style="endArrow=classic;startArrow=classic;html=1;entryX=0.342;entryY=1.05;entryDx=0;entryDy=0;entryPerimeter=0;" edge="1" parent="1">
          <mxGeometry width="50" height="50" relative="1" as="geometry">
            <mxPoint x="399" y="160" as="sourcePoint" />
            <mxPoint x="398.53999999999996" y="120" as="targetPoint" />
          </mxGeometry>
        </mxCell>
        <mxCell id="3R21w9cmI3Dpv5J9La13-2" value="" style="endArrow=classic;html=1;exitX=0.087;exitY=1.1;exitDx=0;exitDy=0;exitPerimeter=0;" edge="1" parent="1" source="3R21w9cmI3Dpv5J9La13-6">
          <mxGeometry width="50" height="50" relative="1" as="geometry">
            <mxPoint x="530" y="260" as="sourcePoint" />
            <mxPoint x="470" y="230" as="targetPoint" />
          </mxGeometry>
        </mxCell>
        <mxCell id="3R21w9cmI3Dpv5J9La13-3" value="Investments in Crypto Assets" style="rounded=1;whiteSpace=wrap;html=1;" vertex="1" parent="1">
          <mxGeometry x="650" y="90" width="120" height="180" as="geometry" />
        </mxCell>
        <mxCell id="3R21w9cmI3Dpv5J9La13-5" value="No of votes as per &lt;br&gt;token holding" style="text;html=1;align=center;verticalAlign=middle;resizable=0;points=[];autosize=1;" vertex="1" parent="1">
          <mxGeometry x="440" y="390" width="110" height="30" as="geometry" />
        </mxCell>
        <mxCell id="3R21w9cmI3Dpv5J9La13-6" value="Decentralized investment&lt;br&gt;decision making" style="text;html=1;align=center;verticalAlign=middle;resizable=0;points=[];autosize=1;" vertex="1" parent="1">
          <mxGeometry x="500" y="240" width="150" height="30" as="geometry" />
        </mxCell>
        <mxCell id="3R21w9cmI3Dpv5J9La13-7" value="DeFi&lt;br&gt;MF" style="text;html=1;align=center;verticalAlign=middle;resizable=0;points=[];autosize=1;" vertex="1" parent="1">
          <mxGeometry x="530" y="155" width="40" height="30" as="geometry" />
        </mxCell>
        <mxCell id="3R21w9cmI3Dpv5J9La13-9" value="" style="endArrow=classic;startArrow=classic;html=1;" edge="1" parent="1">
          <mxGeometry width="50" height="50" relative="1" as="geometry">
            <mxPoint x="480" y="191" as="sourcePoint" />
            <mxPoint x="620" y="191" as="targetPoint" />
          </mxGeometry>
        </mxCell>
        <mxCell id="3R21w9cmI3Dpv5J9La13-10" value="" style="shape=image;html=1;verticalAlign=top;verticalLabelPosition=bottom;labelBackgroundColor=#ffffff;imageAspect=0;aspect=fixed;image=https://cdn4.iconfinder.com/data/icons/crypto-currency-and-coin-2/256/eos_eoscoin_coin-128.png" vertex="1" parent="1">
          <mxGeometry x="665" y="210" width="30" height="30" as="geometry" />
        </mxCell>
        <mxCell id="3R21w9cmI3Dpv5J9La13-11" value="" style="shape=image;html=1;verticalAlign=top;verticalLabelPosition=bottom;labelBackgroundColor=#ffffff;imageAspect=0;aspect=fixed;image=https://cdn4.iconfinder.com/data/icons/crypto-currency-and-coin-2/256/ripple_xrp_coin-128.png" vertex="1" parent="1">
          <mxGeometry x="722" y="219" width="30" height="30" as="geometry" />
        </mxCell>
        <mxCell id="3R21w9cmI3Dpv5J9La13-15" value="" style="shape=image;html=1;verticalAlign=top;verticalLabelPosition=bottom;labelBackgroundColor=#ffffff;imageAspect=0;aspect=fixed;image=https://cdn0.iconfinder.com/data/icons/blockchain-classic/258/Bitcoin-128.png" vertex="1" parent="1">
          <mxGeometry x="670" y="115" width="30" height="30" as="geometry" />
        </mxCell>
        <mxCell id="3R21w9cmI3Dpv5J9La13-17" value="" style="shape=image;html=1;verticalAlign=top;verticalLabelPosition=bottom;labelBackgroundColor=#ffffff;imageAspect=0;aspect=fixed;image=https://cdn4.iconfinder.com/data/icons/cryptocoins/227/ETH-alt-128.png" vertex="1" parent="1">
          <mxGeometry x="730" y="123" width="30" height="30" as="geometry" />
        </mxCell>
        <mxCell id="3R21w9cmI3Dpv5J9La13-18" value="" style="endArrow=classic;startArrow=classic;html=1;" edge="1" parent="1">
          <mxGeometry width="50" height="50" relative="1" as="geometry">
            <mxPoint x="400" y="380" as="sourcePoint" />
            <mxPoint x="400" y="240" as="targetPoint" />
          </mxGeometry>
        </mxCell>
      </root>
    </mxGraphModel>
  </diagram>
</mxfile>
